<?xml version="1.0" encoding="iso-8859-1"?>
<!-- Generator: Adobe Illustrator 19.0.0, SVG Export Plug-In . SVG Version: 6.00 Build 0)  -->
<svg version="1.1" id="Layer_1" xmlns="http://www.w3.org/2000/svg" xmlns:xlink="http://www.w3.org/1999/xlink" x="0px" y="0px"
	 viewBox="0 0 512 512" style="enable-background:new 0 0 512 512;" xml:space="preserve">
<path style="fill:#EBEBEC;" d="M256,108.8c-39.147,0-70.994-31.848-70.994-70.994V0h141.989v37.806
	C326.995,76.952,295.147,108.8,256,108.8z"/>
<path style="fill:#CACACD;" d="M256,108.8C256,77.913,256.557,0,256.557,0h70.438v37.806C326.995,76.952,295.147,108.8,256,108.8z"
	/>
<path style="fill:#EBEBEC;" d="M457.029,512H54.971v-16.696c0-26.877,9.598-52.947,27.027-73.408l11.186-13.133V254.121
	c0-89.46,72.781-162.241,162.241-162.241h1.149c43.336,0,84.079,16.876,114.722,47.52s47.52,71.386,47.518,114.722v154.642
	l11.187,13.133c17.428,20.46,27.026,46.53,27.026,73.408V512H457.029z"/>
<path style="fill:#CACACD;" d="M457.029,512H256c0,0-0.574-382.516-0.574-420.121h1.149c43.336,0,84.079,16.876,114.722,47.52
	s47.52,71.386,47.518,114.722v154.642l11.187,13.133c17.428,20.46,27.026,46.53,27.026,73.408L457.029,512L457.029,512z"/>
<rect x="193.43" y="71" style="fill:#FF7F4B;" width="125.13" height="33.391"/>
<rect x="256" y="71" style="fill:#FD5219;" width="62.57" height="33.391"/>
<rect x="241" y="239.66" style="fill:#F7BA35;" width="30" height="195.03"/>
<rect x="255.82" y="239.66" style="fill:#FD9702;" width="15.181" height="195.03"/>
<path style="fill:#FBDA35;" d="M285.399,214.229c0,30.51-29.399,55.244-29.399,55.244s-29.399-24.734-29.399-55.244
	S256,158.985,256,158.985S285.399,183.718,285.399,214.229z"/>
<g>
	<path style="fill:#F7BA35;" d="M285.399,214.229c0,30.51-29.399,55.244-29.399,55.244V158.985
		C256,158.985,285.399,183.718,285.399,214.229z"/>
	<path style="fill:#F7BA35;" d="M315.851,299.689C294.277,321.263,256,317.964,256,317.964s-3.299-38.277,18.275-59.851
		s59.851-18.275,59.851-18.275S337.425,278.115,315.851,299.689z"/>
</g>
<path style="fill:#FBDA35;" d="M196.149,299.689C217.723,321.263,256,317.964,256,317.964s3.299-38.277-18.275-59.851
	s-59.851-18.275-59.851-18.275S174.575,278.115,196.149,299.689z"/>
<path style="fill:#F7BA35;" d="M315.851,376.018C294.277,397.592,256,394.293,256,394.293s-3.299-38.277,18.275-59.851
	s59.851-18.275,59.851-18.275S337.425,354.443,315.851,376.018z"/>
<path style="fill:#FBDA35;" d="M196.149,376.018C217.723,397.592,256,394.293,256,394.293s3.299-38.277-18.275-59.851
	s-59.851-18.275-59.851-18.275S174.575,354.443,196.149,376.018z"/>
<g>
</g>
<g>
</g>
<g>
</g>
<g>
</g>
<g>
</g>
<g>
</g>
<g>
</g>
<g>
</g>
<g>
</g>
<g>
</g>
<g>
</g>
<g>
</g>
<g>
</g>
<g>
</g>
<g>
</g>
</svg>
