<?xml version="1.0" encoding="iso-8859-1"?>
<!-- Generator: Adobe Illustrator 19.0.0, SVG Export Plug-In . SVG Version: 6.00 Build 0)  -->
<svg version="1.1" id="Layer_1" xmlns="http://www.w3.org/2000/svg" xmlns:xlink="http://www.w3.org/1999/xlink" x="0px" y="0px"
	 viewBox="0 0 511.999 511.999" style="enable-background:new 0 0 511.999 511.999;" xml:space="preserve">
<path style="fill:#9FB847;" d="M193.262,38.627c4.432-4.881,13.625-14.096,21.119-21.765c4.758-4.869,12.94-3.62,15.934,2.494
	c5.985,12.22,11.559,28.815,13.292,37.579l-41.19,63.565L193.262,38.627z"/>
<path style="fill:#80A446;" d="M255.17,64.328c0.87-7.466,0.015-16.686-5.168-19.782c-4.308-2.574-9.367,0.482-13.426,3.867
	c-9.127,7.613-17.253,17.296-23.982,28.422c-1.915-13.805-5.595-27.148-10.918-39.239c-2.367-5.376-5.741-11.046-10.501-11.282
	c-5.726-0.284-9.843,7.395-11.793,14.526c-4.795,17.543-3.654,36.994,0.491,54.601c4.145,17.608,11.125,33.732,18.053,49.703
	c0.569-0.264,1.121-0.576,1.663-0.914c0.355,0.612,0.721,1.215,1.126,1.778c11.964-10.115,24.031-20.338,34.124-33.533
	C244.932,99.282,253.031,82.694,255.17,64.328z"/>
<path style="fill:#517F46;" d="M257.971,103.9c1.241-8.712-0.632-19.842-10.94-20.881c-3.258-0.329-6.519,0.541-9.359,2.171
	c-13.674,7.849-25.751,18.396-35.51,30.769c-2.98-15.474-8.856-30.392-17.394-43.648c-1.773-2.753-4.27-5.024-7.314-6.229
	c-9.632-3.815-16.411,5.208-19.314,13.516c-6.113,17.498-4.407,36.969,1.228,54.627c3.281,10.28,10.197,28.967,10.197,28.967
	L92.679,479.02c-2.678,11,4.068,22.088,15.069,24.766l0,0c11,2.678,22.088-4.068,24.766-15.069l76.888-315.829
	c0,0,14.732-13.417,22.371-21.039C244.892,138.757,255.358,122.251,257.971,103.9z"/>
<path style="opacity:0.1;fill:#272727;enable-background:new    ;" d="M175.099,313.789c-18.377,14.459-36.16,29.671-53.293,45.586
	L92.679,479.019c-0.923,3.795-0.704,7.591,0.404,11.059c14.763-6.449,29.424-13.133,43.978-20.041L175.099,313.789z"/>
<path style="fill:#9FB847;" d="M395.207,117.313c7.268-2.03,23.303-5.888,34.488-8.734c4.393-1.118,8.6,2.306,8.449,6.836
	c-0.465,13.93-4.274,33.925-7.854,43.268l-81.724,40.557L395.207,117.313z"/>
<path style="fill:#80A446;" d="M434.712,171.456c4.709-5.859,8.893-14.119,6.152-19.498c-2.277-4.473-8.187-4.577-13.425-3.871
	c-11.778,1.588-23.812,5.463-35.43,11.301c5.725-12.707,9.71-25.962,11.638-39.031c0.857-5.811,1.018-12.407-2.886-15.14
	c-4.697-3.288-12.269,1.023-17.714,6.023c-13.396,12.301-22.781,29.376-28.641,46.489s-8.532,34.48-11.166,51.687
	c0.622,0.078,1.255,0.109,1.894,0.111c-0.025,0.708-0.036,1.413,0.007,2.105c15.512-2.197,31.168-4.43,46.735-10.23
	C407.443,195.601,423.128,185.868,434.712,171.456z"/>
<path style="fill:#517F46;" d="M338.19,239.011c0,0,19.613-3.519,30.136-5.907c20.076-4.556,39.619-14.421,51.459-31.56
	c2.396-3.469,3.426-7.78,2.447-11.881c-2.042-8.548-10.926-9.964-18.456-9.951c-14.086,0.026-28.147,2.527-41.417,7.248
	c5.712-14.687,8.675-30.444,8.501-46.211c-0.036-3.274-0.941-6.525-2.876-9.167c-6.125-8.356-16.666-4.324-23.545,1.165
	c-14.488,11.562-23.404,28.953-28.031,46.902c-2.693,10.449-6.782,29.951-6.782,29.951L76.457,436.079
	c-8.121,7.888-8.31,20.866-0.422,28.987l0,0c7.888,8.121,20.866,8.31,28.987,0.422L338.19,239.011z"/>
<path d="M447.662,148.496c-1.043-2.048-2.786-4.301-5.652-5.955c3.964-11.934,5.135-24.707,3.362-37.175
	c-0.31-2.175-1.542-4.111-3.381-5.313c-1.842-1.203-4.11-1.553-6.223-0.96l-25.287,7.063c-0.983-2.736-2.639-5.293-5.348-7.188
	c-2.363-1.654-5.212-2.528-8.24-2.528c-7.836,0-15.273,5.752-19.008,9.182c-4.912,4.512-9.168,9.471-12.874,14.582
	c-1.163-0.402-2.374-0.692-3.631-0.858c-9.577-1.281-18.368,4.779-21.702,7.441c-18.235,14.55-26.737,35.744-30.66,50.96
	c-2.186,8.481-5.208,22.505-6.378,28.002L180.328,324.554l35.933-147.602c4.145-3.797,14.697-13.516,20.898-19.701
	c11.123-11.099,25.072-29.177,28.363-52.274c0.602-4.225,1.359-14.873-4.598-22.478c-0.439-0.56-0.908-1.083-1.397-1.58
	c1.447-4.938,2.574-10.18,3.218-15.707c0.718-6.166,1.294-21.165-8.831-27.211c-2.265-1.354-4.756-2.04-7.403-2.04
	c-0.184,0-0.365,0.014-0.548,0.02c-2.992-12.219-8.801-23.663-16.94-33.279c-1.42-1.677-3.493-2.661-5.689-2.699
	c-2.21-0.046-4.303,0.873-5.781,2.499l-17.65,19.437c-2.288-1.793-5.051-3.076-8.352-3.24c-8.778-0.427-15.934,6.984-19.527,20.133
	c-1.761,6.443-2.725,12.918-3.141,19.227c-7.697,1.837-14.36,8.766-17.943,19.024c-7.694,22.021-3.616,44.49,1.161,59.462
	c2.663,8.344,7.567,21.825,9.503,27.101l-57.102,234.559l-33.361,32.404c-5.389,5.234-8.417,12.254-8.526,19.766
	c-0.109,7.513,2.713,14.618,7.947,20.007c3.978,4.096,8.989,6.823,14.462,7.946c-1.405,6.951-0.166,14.068,3.541,20.161
	c3.905,6.419,10.076,10.931,17.375,12.708c2.189,0.532,4.432,0.802,6.67,0.802c0.001,0,0,0,0.001,0
	c13.001,0,24.233-8.832,27.312-21.477l15.401-63.261l97.924-95.114c3.023-2.935,3.092-7.764,0.157-10.786
	c-2.935-3.021-7.764-3.091-10.786-0.157L99.707,460.015c-2.467,2.395-5.746,3.677-9.155,3.637c-3.438-0.05-6.649-1.435-9.045-3.901
	c-2.395-2.466-3.687-5.718-3.637-9.155c0.05-3.438,1.435-6.65,3.901-9.046L314.94,215.073c1.089-1.059,1.84-2.42,2.151-3.906
	c0.04-0.193,4.084-19.453,6.703-29.612c3.342-12.965,10.461-30.922,25.403-42.844c3.593-2.869,7.676-4.587,10.173-4.243
	c0.731,0.098,1.535,0.361,2.461,1.625c0.884,1.206,1.381,2.889,1.401,4.74c0.16,14.529-2.602,29.523-7.984,43.362
	c-1.081,2.782-0.442,5.939,1.637,8.079c2.08,2.14,5.216,2.871,8.029,1.872c12.627-4.492,25.707-6.783,38.876-6.807
	c0.033,0,0.064,0,0.097,0c9.948,0,10.634,2.868,10.927,4.095c0.438,1.835-0.037,3.939-1.304,5.774
	c-6.66,9.641-20.197,22.404-46.871,28.457c-10.232,2.322-29.601,5.803-29.795,5.838c-1.496,0.269-2.877,0.977-3.968,2.036
	l-63.927,62.092c-3.023,2.935-3.092,7.764-0.157,10.786c2.936,3.023,7.766,3.092,10.786,0.157l62.26-60.472
	c5.531-1.009,19.636-3.622,28.177-5.56c17.367-3.942,41.188-13.156,56.046-34.664c3.724-5.392,5.032-11.948,3.59-17.99
	c-0.009-0.039-0.021-0.074-0.031-0.112c3.837-3.397,7.563-7.223,11.036-11.543C444.547,171.395,453.014,159.006,447.662,148.496z
	 M134.761,447.234l-9.66,39.68c-1.41,5.787-6.546,9.831-12.488,9.83c-1.023,0-2.053-0.124-3.062-0.369
	c-3.34-0.814-6.164-2.878-7.95-5.815c-1.786-2.937-2.323-6.394-1.509-9.734l0.939-3.855c3.426-1.347,6.586-3.368,9.307-6.011
	L134.761,447.234z M222.602,19.636c4.446,6.952,7.581,14.715,9.189,22.838c-0.033,0.026-0.067,0.055-0.1,0.082
	c-5.369,4.478-10.397,9.587-15.043,15.278c-2.038-8.017-4.672-15.714-7.871-23.023c0.163-0.151,0.323-0.306,0.476-0.474
	L222.602,19.636z M190.871,34.246c0.687,0.669,2.033,2.359,3.823,6.424c5.021,11.406,8.5,23.926,10.344,37.214
	c0.444,3.2,2.854,5.772,6.017,6.423c3.166,0.652,6.393-0.76,8.066-3.524c6.38-10.549,13.897-19.469,22.34-26.511
	c2.757-2.3,4.235-2.869,4.79-3.01c0.911,1.099,2.125,5.458,1.341,12.185c-0.483,4.151-1.292,8.122-2.332,11.898
	c-3.87,0.073-7.802,1.174-11.386,3.23c-10.213,5.862-19.535,13.058-27.841,21.48c-3.505-11.296-8.477-21.973-14.853-31.875
	c-1.937-3.008-4.39-5.458-7.198-7.262c0.276-5.943,1.112-12.046,2.757-18.068C188.056,38.041,189.85,35.271,190.871,34.246z
	 M176.978,164.995c0.36-1.477,0.271-3.028-0.258-4.453c-0.068-0.186-6.893-18.638-10.083-28.638
	c-4.07-12.755-7.599-31.748-1.294-49.792c1.853-5.305,5.141-9.304,7.647-9.304c0.487,0,1.044,0.123,1.657,0.364
	c1.389,0.55,2.707,1.712,3.709,3.268c7.866,12.215,13.508,26.379,16.318,40.961c0.564,2.93,2.786,5.262,5.685,5.968
	c2.902,0.704,5.947-0.344,7.794-2.688c9.197-11.659,20.717-21.644,33.316-28.876c1.615-0.927,3.294-1.352,4.798-1.198
	c1.558,0.157,2.194,0.716,2.648,1.297c1.548,1.976,2.153,6.365,1.504,10.918c-2.696,18.925-14.559,34.171-24.037,43.626
	c-7.426,7.41-21.972,20.665-22.119,20.799c-1.123,1.023-1.916,2.359-2.275,3.835l-42.225,173.444l-34.698,33.702L176.978,164.995z
	 M430.922,116.287c0.064,8.252-1.412,16.492-4.374,24.226c-0.044,0.006-0.084,0.009-0.128,0.015
	c-6.929,0.934-13.904,2.583-20.868,4.931c2.542-7.875,4.41-15.794,5.592-23.682c0.218-0.041,0.434-0.086,0.651-0.147
	L430.922,116.287z M428.767,166.676c-2.651,3.298-5.488,6.257-8.418,8.924c-4.996-2.728-11.102-3.517-16.485-3.517
	c-0.034,0-0.068,0-0.103,0c-9.98,0.019-19.91,1.185-29.663,3.477c3.045-11.431,4.519-23.116,4.39-34.895
	c-0.04-3.572-0.809-6.946-2.223-9.963c3.397-4.889,7.34-9.619,11.94-13.845c3.518-3.229,6.526-4.72,8.08-5.075
	c0.225,0.938,0.46,3.086-0.186,7.461c-1.817,12.326-5.534,24.777-11.045,37.011c-1.327,2.945-0.656,6.405,1.676,8.641
	c2.331,2.234,5.818,2.758,8.704,1.308c11.016-5.536,22.127-9.089,33.024-10.558c1.279-0.173,2.368-0.256,3.327-0.256
	c1.287,0,1.996,0.155,2.332,0.261C434.298,157.072,433.004,161.405,428.767,166.676z"/>
<g>
</g>
<g>
</g>
<g>
</g>
<g>
</g>
<g>
</g>
<g>
</g>
<g>
</g>
<g>
</g>
<g>
</g>
<g>
</g>
<g>
</g>
<g>
</g>
<g>
</g>
<g>
</g>
<g>
</g>
</svg>
