<?xml version="1.0" encoding="iso-8859-1"?>
<!-- Generator: Adobe Illustrator 19.0.0, SVG Export Plug-In . SVG Version: 6.00 Build 0)  -->
<svg version="1.1" id="Layer_1" xmlns="http://www.w3.org/2000/svg" xmlns:xlink="http://www.w3.org/1999/xlink" x="0px" y="0px"
	 viewBox="0 0 512 512" style="enable-background:new 0 0 512 512;" xml:space="preserve">
<g>
	<path style="fill:#00AC4E;" d="M368.878,64.59l24.231,24.231c0,0-63.486,47.654-119.702,95.714l3.957-47.251h0.162
		C290.369,119.433,324.697,77.19,368.878,64.59z"/>
	<path style="fill:#00AC4E;" d="M234.233,137.285l3.957,47.251c-56.216-48.059-119.702-95.714-119.702-95.714l24.231-24.231
		c44.181,12.6,78.509,54.844,91.433,72.694C234.152,137.285,234.233,137.285,234.233,137.285z"/>
</g>
<path style="fill:#36C63F;" d="M273.407,184.535l-1.454,17.365v0.323c-9.935-0.646-16.155-0.323-16.155-0.323
	s-6.219-0.323-16.155,0.323v-0.323l-1.454-17.365l-3.957-47.251L223.49,8.05h64.617l-10.743,129.234L273.407,184.535z"/>
<path style="fill:#FFD334;" d="M239.645,202.224c9.935-0.646,16.155-0.323,16.155-0.323s6.22-0.323,16.155,0.323
	c5.654,0.404,12.519,1.131,20.112,2.342c45.475,7.512,117.603,35.135,117.603,134.645c0,145.388-145.388,48.463-145.388,153.465
	l-8.481,8.077l-8.077-8.077c0-105.002-145.388-8.077-145.388-153.465c0-101.045,74.148-128.022,119.379-134.968
	C228.418,203.193,234.556,202.627,239.645,202.224z"/>
<path style="fill:#231F20;" d="M373.151,231.272c-25.715-21.993-57.575-30.98-79.818-34.654c-4.277-0.683-8.528-1.236-12.722-1.686
	l0.534-6.417c54.753-46.617,116.172-92.788,116.796-93.255l7.42-5.569l-34.139-34.139l-4.553,1.298
	c-33.423,9.532-61.196,34.751-79.14,55.059L296.854,0h-82.11l9.3,111.876c-18.023-20.319-45.85-45.54-79.117-55.027l-4.552-1.298
	L106.236,89.69l7.42,5.569c0.623,0.468,61.967,46.579,116.789,93.248l0.538,6.422c-3.244,0.341-6.786,0.776-10.492,1.357
	c-22.342,3.43-54.463,12.111-80.596,33.98c-30.266,25.327-45.612,61.981-45.612,108.944c0,85.305,48.863,94.254,88.125,101.447
	c33.244,6.089,57.262,10.49,57.262,52.019v3.334L255.661,512l16.668-15.874v-3.45c0-41.529,24.019-45.93,57.263-52.019
	c39.262-7.192,88.125-16.143,88.125-101.447C417.718,292.879,402.723,256.563,373.151,231.272z M285.147,140.504
	c32.866-45.051,65.397-61.205,81.494-66.767l14.246,14.246c-16.404,12.495-57.581,44.197-97.853,77.876L285.147,140.504z
	 M130.71,87.985l14.261-14.262c38.32,12.969,68.762,49.425,81.439,66.613l2.137,25.513
	C188.252,132.152,147.106,100.473,130.71,87.985z M279.36,16.1l-10.017,120.512l-4.791,57.217c-4.587-0.117-7.674-0.028-8.753,0.015
	c-1.078-0.043-4.166-0.132-8.752-0.015l-4.791-57.212L232.238,16.1H279.36z M326.691,424.821
	c-32.313,5.919-68.845,12.606-70.41,64.355l-0.346,0.331l-0.213-0.214c-1.512-51.855-38.075-58.549-70.412-64.471
	c-38.531-7.057-74.927-13.725-74.927-85.61c0-41.972,13.406-74.474,39.844-96.597c23.285-19.485,52.391-27.295,72.731-30.418
	c6.556-1.026,12.665-1.578,17.265-1.944c9.23-0.599,21.934-0.598,31.183,0.002c6.281,0.45,12.805,1.211,19.346,2.254
	c20.178,3.333,49.038,11.417,71.934,30.999c25.833,22.093,38.932,54.293,38.932,95.704
	C401.618,411.097,365.222,417.764,326.691,424.821z"/>
<path style="fill:#FFFFFF;" d="M195.905,254.151c-24.251,11.115-53.159,34.895-53.159,85.06h16.1
	c0-33.247,14.579-56.873,43.332-70.224c22.368-10.385,45.325-10.573,45.555-10.574l-0.012-16.1
	C246.661,242.314,221.44,242.448,195.905,254.151z"/>
<rect x="142.753" y="355.367" style="fill:#231F20;" width="16.1" height="16.154"/>
<rect x="280.031" y="347.317" style="fill:#FFFFFF;" width="48.461" height="16.1"/>
<rect x="296.184" y="266.549" style="fill:#231F20;" width="48.461" height="16.1"/>
<g>
</g>
<g>
</g>
<g>
</g>
<g>
</g>
<g>
</g>
<g>
</g>
<g>
</g>
<g>
</g>
<g>
</g>
<g>
</g>
<g>
</g>
<g>
</g>
<g>
</g>
<g>
</g>
<g>
</g>
</svg>
