<?xml version="1.0" encoding="iso-8859-1"?>
<!-- Generator: Adobe Illustrator 19.0.0, SVG Export Plug-In . SVG Version: 6.00 Build 0)  -->
<svg xmlns="http://www.w3.org/2000/svg" xmlns:xlink="http://www.w3.org/1999/xlink" version="1.1" id="Capa_1" x="0px" y="0px" viewBox="0 0 470 470" style="enable-background:new 0 0 470 470;" xml:space="preserve" width="512px" height="512px">
<g>
	<path d="M235,150.111c4.143,0,7.5-3.357,7.5-7.5V89.992c0-4.143-3.357-7.5-7.5-7.5c-4.142,0-7.5,3.357-7.5,7.5v52.619   C227.5,146.754,230.858,150.111,235,150.111z" fill="#9c4835"/>
	<path d="M169.671,177.171c1.919,0,3.839-0.732,5.303-2.196c2.929-2.93,2.929-7.678,0-10.607l-37.208-37.207   c-2.929-2.928-7.678-2.928-10.606,0c-2.929,2.93-2.929,7.678,0,10.607l37.208,37.207   C165.833,176.438,167.752,177.171,169.671,177.171z" fill="#9c4835"/>
	<path d="M142.611,227.5H89.992c-4.142,0-7.5,3.357-7.5,7.5s3.358,7.5,7.5,7.5h52.619c4.142,0,7.5-3.357,7.5-7.5   S146.753,227.5,142.611,227.5z" fill="#9c4835"/>
	<path d="M164.368,295.025l-37.207,37.207c-2.929,2.93-2.929,7.678,0,10.607c1.464,1.464,3.384,2.196,5.303,2.196   s3.839-0.732,5.303-2.196l37.207-37.207c2.929-2.93,2.929-7.678,0-10.607C172.045,292.098,167.296,292.098,164.368,295.025z" fill="#9c4835"/>
	<path d="M235,319.889c-4.142,0-7.5,3.357-7.5,7.5v52.619c0,4.143,3.358,7.5,7.5,7.5c4.143,0,7.5-3.357,7.5-7.5v-52.619   C242.5,323.246,239.143,319.889,235,319.889z" fill="#9c4835"/>
	<path d="M295.025,295.025c-2.929,2.93-2.929,7.678,0,10.607l37.207,37.207c1.465,1.464,3.385,2.196,5.304,2.196   s3.839-0.732,5.304-2.196c2.929-2.93,2.929-7.678,0-10.607l-37.207-37.207C302.703,292.098,297.955,292.098,295.025,295.025z" fill="#9c4835"/>
	<path d="M466.663,228.762C433.563,206.675,394.501,195,353.698,195c-8.775,0-17.493,0.564-26.107,1.647   c6.858-5.325,13.422-11.091,19.627-17.296c28.851-28.852,48.217-64.729,56.004-103.751c0.491-2.458-0.278-4.999-2.051-6.771   c-1.773-1.771-4.314-2.543-6.771-2.051c-39.022,7.787-74.899,27.153-103.752,56.005c-6.205,6.205-11.97,12.769-17.295,19.626   c1.084-8.614,1.648-17.332,1.648-26.107c0-40.803-11.675-79.865-33.762-112.965C239.848,1.252,237.507,0,235,0   c-2.506,0-4.847,1.252-6.239,3.337C206.674,36.436,195,75.498,195,116.302c0,8.775,0.564,17.493,1.648,26.107   c-5.325-6.857-11.091-13.422-17.296-19.627C150.5,93.932,114.624,74.565,75.601,66.778c-2.458-0.491-4.998,0.279-6.771,2.051   c-1.772,1.772-2.542,4.313-2.052,6.771c7.786,39.021,27.152,74.898,56.005,103.752c6.205,6.205,12.769,11.971,19.626,17.296   c-8.614-1.084-17.333-1.648-26.108-1.648c-40.803,0-79.865,11.675-112.964,33.762C1.252,230.152,0,232.493,0,235   s1.252,4.848,3.337,6.238C36.437,263.325,75.499,275,116.301,275c8.775,0,17.494-0.564,26.108-1.647   c-6.857,5.324-13.421,11.09-19.626,17.295c-28.853,28.854-48.219,64.73-56.005,103.752c-0.491,2.458,0.279,4.999,2.052,6.771   c1.42,1.42,3.334,2.196,5.303,2.196c0.488,0,0.979-0.048,1.468-0.146c39.022-7.787,74.899-27.153,103.75-56.004   c6.205-6.205,11.971-12.77,17.296-19.627c-1.083,8.614-1.648,17.332-1.648,26.107c0,40.804,11.674,79.866,33.761,112.965   c1.392,2.085,3.732,3.337,6.239,3.337c2.507,0,4.848-1.252,6.238-3.337C263.325,433.563,275,394.501,275,353.698   c0-8.775-0.564-17.493-1.648-26.107c5.325,6.857,11.091,13.422,17.296,19.627c28.852,28.851,64.729,48.217,103.751,56.004   c0.488,0.098,0.979,0.146,1.468,0.146c1.969,0,3.883-0.776,5.304-2.196c1.772-1.772,2.542-4.313,2.051-6.771   c-7.787-39.022-27.153-74.899-56.005-103.752c-6.205-6.205-12.769-11.971-19.626-17.295c8.614,1.083,17.333,1.647,26.108,1.647   c40.803,0,79.865-11.675,112.965-33.762c2.085-1.391,3.337-3.731,3.337-6.238S468.748,230.152,466.663,228.762z M301.255,336.611   c-22.783-22.784-39.337-50.631-48.13-80.797c0.957-0.835,1.855-1.733,2.689-2.689c30.168,8.794,58.015,25.348,80.797,48.129   c23.882,23.883,40.747,52.925,49.217,84.573C354.179,377.357,325.137,360.492,301.255,336.611z M235,448.302   c-16.39-28.367-25-60.828-25-94.604c0-32.213,7.983-63.605,23.091-91.152c0.632,0.043,1.267,0.073,1.909,0.073   c0.643,0,1.278-0.03,1.91-0.073c15.108,27.546,23.09,58.938,23.09,91.152C260,387.474,251.391,419.935,235,448.302z    M84.173,385.827c8.468-31.647,25.333-60.689,49.216-84.572c22.783-22.783,50.63-39.337,80.797-48.13   c0.834,0.957,1.733,1.855,2.69,2.689c-8.795,30.167-25.349,58.014-48.131,80.796C144.863,360.492,115.821,377.357,84.173,385.827z    M168.745,133.39c22.782,22.782,39.336,50.629,48.131,80.796c-0.957,0.835-1.856,1.733-2.69,2.69   c-30.167-8.795-58.014-25.349-80.796-48.131c-23.883-23.883-40.748-52.924-49.216-84.572   C115.821,92.643,144.863,109.508,168.745,133.39z M235,21.698c16.391,28.367,25,60.828,25,94.604   c0,32.214-7.983,63.605-23.091,91.152c-0.631-0.043-1.266-0.073-1.909-0.073s-1.277,0.03-1.909,0.073   C217.982,179.907,210,148.516,210,116.302C210,82.526,218.61,50.065,235,21.698z M385.827,84.173   c-8.47,31.648-25.335,60.69-49.216,84.572c-22.784,22.783-50.631,39.338-80.797,48.131c-0.834-0.957-1.733-1.855-2.689-2.689   c8.795-30.168,25.348-58.015,48.129-80.797C325.137,109.508,354.179,92.643,385.827,84.173z M222.381,235   c0-6.958,5.661-12.619,12.619-12.619s12.619,5.661,12.619,12.619s-5.661,12.619-12.619,12.619S222.381,241.958,222.381,235z    M207.454,236.909C179.907,252.018,148.516,260,116.301,260c-33.774,0-66.236-8.609-94.603-25c28.367-16.391,60.828-25,94.603-25   c32.214,0,63.605,7.982,91.153,23.091c-0.043,0.632-0.073,1.267-0.073,1.909S207.411,236.277,207.454,236.909z M262.546,233.091   C290.093,217.982,321.484,210,353.698,210c33.775,0,66.236,8.609,94.604,25c-28.367,16.391-60.828,25-94.604,25   c-32.213,0-63.605-7.982-91.153-23.091c0.043-0.632,0.073-1.267,0.073-1.909S262.589,233.723,262.546,233.091z" fill="#9c4835"/>
	<path d="M327.389,242.5h52.619c4.143,0,7.5-3.357,7.5-7.5s-3.357-7.5-7.5-7.5h-52.619c-4.143,0-7.5,3.357-7.5,7.5   S323.246,242.5,327.389,242.5z" fill="#9c4835"/>
	<path d="M300.329,177.171c1.919,0,3.839-0.732,5.304-2.196l37.207-37.207c2.929-2.93,2.929-7.678,0-10.607   c-2.93-2.928-7.678-2.928-10.607,0l-37.207,37.207c-2.929,2.93-2.929,7.678,0,10.607   C296.49,176.438,298.41,177.171,300.329,177.171z" fill="#9c4835"/>
</g>
<g>
</g>
<g>
</g>
<g>
</g>
<g>
</g>
<g>
</g>
<g>
</g>
<g>
</g>
<g>
</g>
<g>
</g>
<g>
</g>
<g>
</g>
<g>
</g>
<g>
</g>
<g>
</g>
<g>
</g>
</svg>
