<?xml version="1.0" encoding="iso-8859-1"?>
<!-- Generator: Adobe Illustrator 19.0.0, SVG Export Plug-In . SVG Version: 6.00 Build 0)  -->
<svg version="1.1" id="Layer_1" xmlns="http://www.w3.org/2000/svg" xmlns:xlink="http://www.w3.org/1999/xlink" x="0px" y="0px"
	 viewBox="0 0 512 512" style="enable-background:new 0 0 512 512;" xml:space="preserve">
<path style="fill:#FFD311;" d="M338.7,107.141h49.62c27.291,0,49.62,22.329,49.62,49.62s-22.329,49.62-49.62,49.62H338.7v115.78
	h49.62c27.291,0,49.62,22.329,49.62,49.62s-22.329,49.62-49.62,49.62H338.7c0,45.484-37.215,82.699-82.699,82.699
	s-82.699-37.215-82.699-82.699V313.89h-49.621c-27.291,0-49.62-22.329-49.62-49.62s22.329-49.62,49.62-49.62h49.62V90.601
	c0-45.484,37.215-82.699,82.699-82.699s82.699,37.215,82.699,82.699v16.54H338.7z"/>
<path style="fill:#231F20;" d="M388.319,314.258h-41.718v-99.976h41.718c31.717,0,57.522-25.803,57.522-57.522
	s-25.803-57.523-57.522-57.523h-41.718V90.6c0-49.957-40.643-90.6-90.601-90.6s-90.601,40.643-90.601,90.601v116.146h-41.719
	c-31.717,0-57.522,25.804-57.522,57.523c0,31.718,25.803,57.522,57.522,57.522h41.719v99.607c0,49.958,40.643,90.601,90.601,90.601
	c47.297,0,86.243-36.428,90.26-82.699h42.059c31.717,0,57.522-25.803,57.522-57.522
	C445.841,340.062,420.037,314.258,388.319,314.258z M388.319,413.497h-90.97v15.804h33.028
	c-3.96,37.542-35.803,66.895-74.377,66.895c-41.243,0-74.797-33.555-74.797-74.797v-99.607h33.447v-15.804h-90.97
	c-23.003,0-41.718-18.715-41.718-41.718c0-23.004,18.715-41.719,41.718-41.719h57.523V90.601c0-41.243,33.554-74.797,74.797-74.797
	s74.797,33.555,74.797,74.797v8.637H305.62v15.804h82.699c23.003,0,41.718,18.715,41.718,41.719
	c0,23.003-18.715,41.718-41.718,41.718h-57.522v131.583h57.522c23.003,0,41.718,18.715,41.718,41.718
	C430.037,394.782,411.322,413.497,388.319,413.497z"/>
<path style="fill:#FFFFFF;" d="M257.334,48.771l-1.334-7.789l-1.298-7.794c-0.585,0.098-14.465,2.503-28.252,12.843
	c-12.76,9.571-27.972,27.941-27.972,61.11h15.804C214.282,56.917,255.576,49.079,257.334,48.771z"/>
<g>
	<rect x="198.475" y="123.681" style="fill:#231F20;" width="15.804" height="16.539"/>
	<rect x="214.647" y="248.099" style="fill:#231F20;" width="49.624" height="15.804"/>
</g>
<g>
	<rect x="272.542" y="157.132" style="fill:#FFFFFF;" width="49.624" height="15.804"/>
	<rect x="256.001" y="347.336" style="fill:#FFFFFF;" width="57.889" height="15.804"/>
</g>
<g>
	<rect x="231.189" y="388.689" style="fill:#231F20;" width="41.353" height="15.804"/>
	<rect x="330.426" y="347.336" style="fill:#231F20;" width="16.54" height="15.804"/>
	<rect x="239.459" y="157.132" style="fill:#231F20;" width="16.54" height="15.804"/>
</g>
<g>
	<rect x="181.575" y="248.099" style="fill:#FFFFFF;" width="16.54" height="15.804"/>
	<rect x="198.106" y="388.689" style="fill:#FFFFFF;" width="16.539" height="15.804"/>
</g>
<g>
</g>
<g>
</g>
<g>
</g>
<g>
</g>
<g>
</g>
<g>
</g>
<g>
</g>
<g>
</g>
<g>
</g>
<g>
</g>
<g>
</g>
<g>
</g>
<g>
</g>
<g>
</g>
<g>
</g>
</svg>
