<?xml version="1.0" encoding="iso-8859-1"?>
<!-- Generator: Adobe Illustrator 19.0.0, SVG Export Plug-In . SVG Version: 6.00 Build 0)  -->
<svg version="1.1" id="Layer_1" xmlns="http://www.w3.org/2000/svg" xmlns:xlink="http://www.w3.org/1999/xlink" x="0px" y="0px"
	 viewBox="0 0 297 297" style="enable-background:new 0 0 297 297;" xml:space="preserve">
<g>
	<path style="fill:#E5841A;" d="M171.52,68.376L155.863,5.75c-0.818-3.276-3.699-5.597-7.047-5.736
		C148.71,0.009,148.605,0,148.499,0c-3.483,0-6.52,2.37-7.364,5.75l-15.657,62.626c-0.567,2.268-0.057,4.67,1.381,6.512
		c1.438,1.843,3.645,2.92,5.983,2.92h15.973h15.34c2.338,0,4.545-1.077,5.983-2.92C171.577,73.046,172.087,70.643,171.52,68.376z"/>
	<path style="fill:#FA961E;" d="M148.499,0c-3.483,0-6.52,2.37-7.364,5.75l-15.657,62.626c-0.567,2.267-0.057,4.67,1.381,6.512
		c1.438,1.843,3.645,2.92,5.983,2.92h15.973V0.013C148.71,0.009,148.605,0,148.499,0z"/>
	<path style="fill:#E5841A;" d="M171.52,68.376L155.863,5.75c-0.818-3.276-3.699-5.597-7.047-5.736v77.795h15.34
		c2.338,0,4.545-1.077,5.983-2.92C171.577,73.046,172.087,70.644,171.52,68.376z"/>
	<path style="fill:#F4B638;" d="M183.292,62.626h-34.476h-35.109c-4.192,0-7.591,3.399-7.591,7.591v31.313
		c0,4.192,3.399,7.591,7.591,7.591h35.109h34.476c4.192,0,7.591-3.399,7.591-7.591V70.217
		C190.883,66.025,187.484,62.626,183.292,62.626z"/>
	<path style="fill:#FCD067;" d="M113.706,62.626c-4.192,0-7.591,3.399-7.591,7.591v31.313c0,4.192,3.399,7.591,7.591,7.591h35.109
		V62.626H113.706z"/>
	<path style="fill:#F4B638;" d="M183.292,62.626h-34.476v46.495h34.476c4.192,0,7.591-3.399,7.591-7.591V70.217
		C190.883,66.025,187.484,62.626,183.292,62.626z"/>
	<path style="fill:#E5841A;" d="M211.126,93.939h-62.31H85.874c-4.192,0-7.591,3.399-7.591,7.591v187.879
		c0,4.192,3.399,7.591,7.591,7.591h62.943h62.31c4.192,0,7.591-3.399,7.591-7.591V101.53
		C218.716,97.338,215.317,93.939,211.126,93.939z"/>
	<path style="fill:#FA961E;" d="M85.874,93.939c-4.192,0-7.591,3.399-7.591,7.591v187.879c0,4.192,3.399,7.591,7.591,7.591h62.943
		V93.939H85.874z"/>
	<path style="fill:#E5841A;" d="M211.126,93.939h-62.31V297h62.31c4.192,0,7.591-3.399,7.591-7.591V101.53
		C218.716,97.338,215.317,93.939,211.126,93.939z"/>
	<path style="fill:#F4B638;" d="M194.994,164.631h-46.179v61.677h46.179c4.192,0,7.591-3.399,7.591-7.591v-46.495
		C202.585,168.03,199.186,164.631,194.994,164.631z"/>
	<path style="fill:#FCD067;" d="M102.005,164.631c-4.192,0-7.591,3.399-7.591,7.591v46.495c0,4.192,3.399,7.591,7.591,7.591h46.812
		v-61.677H102.005z"/>
</g>
<g>
</g>
<g>
</g>
<g>
</g>
<g>
</g>
<g>
</g>
<g>
</g>
<g>
</g>
<g>
</g>
<g>
</g>
<g>
</g>
<g>
</g>
<g>
</g>
<g>
</g>
<g>
</g>
<g>
</g>
</svg>
