<?xml version="1.0" encoding="iso-8859-1"?>
<!-- Generator: Adobe Illustrator 19.0.0, SVG Export Plug-In . SVG Version: 6.00 Build 0)  -->
<svg xmlns="http://www.w3.org/2000/svg" xmlns:xlink="http://www.w3.org/1999/xlink" version="1.1" id="Layer_1" x="0px" y="0px" viewBox="0 0 512 512" style="enable-background:new 0 0 512 512;" xml:space="preserve" width="512px" height="512px">
<g>
	<g>
		<path d="M403.576,10.552H299.139c-9.187,0-20.62,0-30.74,4.495c-16.161,7.176-34.251,17.446-53.006,29.421l-0.655,0.422    C134.169,96.459,41.605,179.17,36.817,183.463l-5.35,4.799l0.138,0.17C12.084,208.049,0,235.075,0,264.871    c0,25.153,8.736,49.486,24.659,68.845v167.732H291.63h0.021h4.974v-3.821l190.715-145.896V187.822    C503.265,168.463,512,144.129,512,118.977C512,59.191,463.361,10.552,403.576,10.552z M283.369,326.004l-1.848,2.13v158.21H39.763    v-158.21l-1.848-2.13c-14.711-16.95-22.812-38.66-22.812-61.133c0-51.457,41.863-93.321,93.321-93.321h104.437    c51.457,0,93.321,41.863,93.321,93.321C306.182,287.344,298.08,309.055,283.369,326.004z M474.39,179.743l-43.857,37.683    l9.843,11.456l31.861-27.376V344.27l-45.288,34.645v-81.544h-15.104v93.098l-53.793,41.151v-58.315h-15.104v69.87l-46.322,35.436    V333.717c15.924-19.36,24.66-43.692,24.66-68.845c0-59.785-48.639-108.424-108.424-108.424H108.424    c-6.448,0-12.765,0.569-18.907,1.653c15.109-12.618,33.227-27.399,52.691-42.538h98.479c0.356-0.029,37.314-0.259,68.476,13.65    l6.156-13.792c-34.146-15.242-73.153-14.971-74.718-14.961h-78.66c19.101-14.372,38.901-28.514,57.972-40.887h95.955    c0.614-0.04,63.01-0.353,93.688,30.324l10.68-10.68c-35.124-35.125-101.713-34.77-104.454-34.75h-71.362    c10.592-6.14,20.723-11.45,30.108-15.617c6.665-2.96,14.743-3.195,24.611-3.195h104.437c51.457,0,93.321,41.863,93.321,93.321    C496.896,141.29,488.902,162.846,474.39,179.743z" fill="#FFFFFF"/>
	</g>
</g>
<g>
	<g>
		<rect x="342.944" y="346.066" width="15.104" height="14.303" fill="#FFFFFF"/>
	</g>
</g>
<g>
	<g>
		<rect x="411.847" y="268.805" width="15.104" height="13.919" fill="#FFFFFF"/>
	</g>
</g>
<g>
	<g>
		<path d="M330.866,123.806l-8.234,12.661c4.414,2.872,8.365,6.04,11.745,9.419l10.68-10.678    C340.936,131.085,336.161,127.249,330.866,123.806z" fill="#FFFFFF"/>
	</g>
</g>
<g>
	<g>
		<polygon points="84.039,433.022 76.651,434.59 69.265,436.157 71.876,448.473 79.264,446.905 86.652,445.338   " fill="#FFFFFF"/>
	</g>
</g>
<g>
	<g>
		<polygon points="144.333,275.004 136.945,276.571 129.557,278.138 132.17,290.454 139.557,288.887 146.945,287.319   " fill="#FFFFFF"/>
	</g>
</g>
<g>
	<g>
		
			<rect x="99.865" y="339.768" transform="matrix(0.9782 -0.2075 0.2075 0.9782 -69.4717 29.8218)" width="15.103" height="12.591" fill="#FFFFFF"/>
	</g>
</g>
<g>
	<g>
		<polygon points="204.673,433.022 197.285,434.59 189.898,436.157 192.51,448.473 199.897,446.905 207.285,445.338   " fill="#FFFFFF"/>
	</g>
</g>
<g>
	<g>
		<polygon points="192.101,212.029 177.325,215.161 179.938,227.479 187.326,225.912 194.713,224.344   " fill="#FFFFFF"/>
	</g>
</g>
<g>
	<g>
		<polygon points="273.287,232.94 265.899,234.508 258.512,236.076 261.125,248.391 268.512,246.823 275.9,245.257   " fill="#FFFFFF"/>
	</g>
</g>
<g>
	<g>
		<polygon points="210.271,346.482 202.883,348.049 195.495,349.616 198.108,361.933 205.496,360.365 212.883,358.797   " fill="#FFFFFF"/>
	</g>
</g>
<g>
	<g>
		<polygon points="53.911,239.098 39.137,242.232 41.75,254.55 49.136,252.983 56.524,251.415   " fill="#FFFFFF"/>
	</g>
</g>
<g>
</g>
<g>
</g>
<g>
</g>
<g>
</g>
<g>
</g>
<g>
</g>
<g>
</g>
<g>
</g>
<g>
</g>
<g>
</g>
<g>
</g>
<g>
</g>
<g>
</g>
<g>
</g>
<g>
</g>
</svg>
