<?xml version="1.0" encoding="iso-8859-1"?>
<!-- Generator: Adobe Illustrator 19.0.0, SVG Export Plug-In . SVG Version: 6.00 Build 0)  -->
<svg version="1.1" id="Layer_1" xmlns="http://www.w3.org/2000/svg" xmlns:xlink="http://www.w3.org/1999/xlink" x="0px" y="0px"
	 viewBox="0 0 511.999 511.999" style="enable-background:new 0 0 511.999 511.999;" xml:space="preserve">
<path style="fill:#8D6A59;" d="M311.263,86.666V63.224H102.711v23.441c0,12.181-4.772,23.877-13.294,32.581l-27.653,28.245
	c-11.407,11.651-17.795,27.307-17.795,43.612v233.264c0,35.473,28.756,64.229,64.229,64.229h197.578
	c35.473,0,64.229-28.756,64.229-64.229V191.104c0-16.305-6.388-31.961-17.795-43.612l-27.654-28.245
	C316.035,110.543,311.263,98.847,311.263,86.666z"/>
<path style="opacity:0.15;fill:#FFFFFF;enable-background:new    ;" d="M352.21,147.492l-10.947-11.181L44.564,433.01
	c4.223,31.383,31.094,55.587,63.634,55.587h21.498l240.31-240.31v-57.184C370.005,174.799,363.617,159.143,352.21,147.492z"/>
<rect x="102.709" y="63.22" style="opacity:0.1;enable-background:new    ;" width="208.55" height="18.728"/>
<path style="fill:#FFFFFF;" d="M290.977,412.532H122.996c-12.21,0-22.108-9.898-22.108-22.108V227.162
	c0-12.21,9.898-22.108,22.108-22.108h167.981c12.21,0,22.108,9.898,22.108,22.108v163.262
	C313.085,402.634,303.187,412.532,290.977,412.532z"/>
<path style="fill:#F5B96E;" d="M270.394,372.2L270.394,372.2c-20.084,20.084-53.802,15.392-67.639-9.413l0,0
	c-11.649-20.883-28.879-38.113-49.762-49.762l0,0c-24.805-13.837-29.497-47.555-9.413-67.639l0,0
	c20.084-20.084,53.802-15.392,67.639,9.413l0,0c11.649,20.883,28.879,38.113,49.762,49.762l0,0
	C285.786,318.398,290.478,352.116,270.394,372.2z"/>
<g style="opacity:0.1;">
	<path d="M189.833,317.456c-1.919,0-3.839-0.732-5.304-2.196l-33.919-33.919c-2.929-2.93-2.929-7.678,0-10.607
		c2.93-2.928,7.678-2.928,10.607,0l33.919,33.919c2.929,2.93,2.929,7.678,0,10.607C193.672,316.724,191.752,317.456,189.833,317.456
		z"/>
	<path d="M227.802,318.892c-1.919,0-3.839-0.732-5.304-2.196l-45.759-45.759c-2.929-2.93-2.929-7.678,0-10.607
		c2.93-2.928,7.678-2.928,10.608,0l45.759,45.759c2.929,2.93,2.929,7.678,0,10.607C231.641,318.159,229.721,318.892,227.802,318.892
		z"/>
	<path d="M167.564,305.807c-1.919,0-3.839-0.732-5.304-2.196c-2.929-2.93-2.929-7.678,0-10.608l28.959-28.959
		c2.93-2.928,7.678-2.928,10.607,0c2.929,2.93,2.929,7.678,0,10.607l-28.959,28.959
		C171.403,305.074,169.483,305.807,167.564,305.807z"/>
</g>
<path style="fill:#D0D1D2;" d="M455.174,155.36c-29.093-29.093-100.583-4.771-139.512,34.157
	c-31.872,31.872-32.845,64.467-16.185,91.204L117.179,445.556c-14.358,12.983-14.921,35.343-1.232,49.032
	c13.688,13.688,36.048,13.126,49.032-1.233l164.835-182.299c26.737,16.66,59.332,15.687,91.204-16.185
	C459.945,255.943,484.267,184.453,455.174,155.36z"/>
<path style="opacity:0.1;enable-background:new    ;" d="M407.307,269.477c24.479-24.479,39.773-69.434,21.479-87.729
	s-63.249-3-87.729,21.479c-24.479,24.479-19.977,49.638-1.682,67.932S382.828,293.956,407.307,269.477z"/>
<path style="fill:#20AB6C;" d="M326.472,7.5H87.502c-8.477,0-15.35,6.872-15.35,15.35v25.025c0,8.477,6.872,15.35,15.35,15.35
	h238.97c8.477,0,15.35-6.872,15.35-15.35V22.85C341.822,14.372,334.949,7.5,326.472,7.5z"/>
<g>
	<path style="fill:#E8A8C2;" d="M149.495,163.287h-18.456c-4.142,0-7.5-3.357-7.5-7.5s3.358-7.5,7.5-7.5h18.456
		c4.143,0,7.5,3.357,7.5,7.5C156.995,159.93,153.638,163.287,149.495,163.287z"/>
	<path style="fill:#E8A8C2;" d="M282.934,163.287h-18.456c-4.143,0-7.5-3.357-7.5-7.5s3.357-7.5,7.5-7.5h18.456
		c4.143,0,7.5,3.357,7.5,7.5C290.434,159.93,287.076,163.287,282.934,163.287z"/>
</g>
<path d="M273.706,141.878c4.143,0,7.5-3.357,7.5-7.5v-11.729c0-4.143-3.357-7.5-7.5-7.5s-7.5,3.357-7.5,7.5v11.729
	C266.206,138.52,269.564,141.878,273.706,141.878z M460.478,150.057c-15.496-15.494-41.554-19.173-73.374-10.354
	c-8.054,2.232-16.167,5.225-24.125,8.809c-1.691-2.204-3.491-4.307-5.409-6.267L329.916,114
	c-7.192-7.346-11.153-17.053-11.153-27.334V70.725h7.709c12.6,0,22.85-10.25,22.85-22.85V22.85c0-12.6-10.25-22.85-22.85-22.85
	H87.502c-12.6,0-22.85,10.25-22.85,22.85v25.025c0,12.6,10.25,22.85,22.85,22.85h7.709v15.941c0,10.28-3.961,19.988-11.153,27.334
	l-27.653,28.245c-12.855,13.13-19.936,30.481-19.936,48.859v233.264c0,39.242,31.68,71.208,70.806,71.706
	c1.039,1.326,2.156,2.605,3.368,3.817c7.834,7.833,18.165,12.109,29.196,12.108c0.357,0,0.717-0.004,1.076-0.013
	c11.434-0.288,21.955-5.118,29.626-13.602l2.069-2.288h133.166c39.552,0,71.729-32.178,71.729-71.729v-96.263
	c16.953-3.096,33.361-12.475,48.815-27.929c20.133-20.133,36.772-48.823,44.511-76.745
	C479.65,191.61,475.973,165.553,460.478,150.057z M87.502,55.725c-4.328,0-7.85-3.522-7.85-7.85V22.85c0-4.328,3.521-7.85,7.85-7.85
	h238.97c4.328,0,7.85,3.521,7.85,7.85v25.025c0,4.328-3.522,7.85-7.85,7.85H87.502z M98.547,469.619
	c-0.093,3.708,0.304,7.343,1.148,10.84c-27.261-4.115-48.226-27.7-48.226-56.091V191.105c0-14.431,5.56-28.056,15.654-38.365
	l27.653-28.245c9.953-10.167,15.435-23.601,15.435-37.828V70.725h193.552v15.941c0,14.229,5.481,27.662,15.435,37.828l27.653,28.245
	c0.829,0.846,1.623,1.735,2.4,2.644c-14.49,8.007-27.958,17.896-38.893,28.831c-4.651,4.651-8.732,9.391-12.278,14.203
	c-2.305-0.57-4.677-0.863-7.103-0.863H122.996c-16.325,0-29.607,13.282-29.607,29.608v163.262c0,16.325,13.282,29.608,29.607,29.608
	h11.229l-22.077,19.962C103.665,447.664,98.835,458.185,98.547,469.619z M217.769,251.145
	c-7.751-13.894-21.233-23.121-36.992-25.314c-15.763-2.192-31.25,3.002-42.501,14.251c-11.25,11.251-16.444,26.741-14.251,42.5
	c2.192,15.758,11.419,29.241,25.314,36.992c19.139,10.677,34.977,26.307,45.933,45.259l-44.457,40.198h-27.818
	c-8.055,0-14.607-6.553-14.607-14.608V227.162c0-8.055,6.553-14.608,14.607-14.608h166.358c-3.83,7.679-6.311,15.513-7.413,23.462
	c-0.697,5.033-0.807,10.1-0.367,15.15c0.002,0.024,0.004,0.048,0.006,0.072c0.058,0.655,0.123,1.309,0.199,1.963
	c0.036,0.318,0.079,0.637,0.12,0.955c0.057,0.434,0.111,0.868,0.176,1.301c1.054,7.124,3.242,14.184,6.559,21.089
	c0.028,0.059,0.058,0.117,0.086,0.176c0.355,0.735,0.724,1.468,1.105,2.2c0.049,0.095,0.094,0.191,0.143,0.285l-22.618,20.451
	c-0.893-0.575-1.796-1.132-2.718-1.647C244.953,287.032,228.747,270.826,217.769,251.145z M255.719,310.177l-49.09,44.387
	c-12.229-20.054-29.413-36.615-49.983-48.09c-9.751-5.439-16.226-14.901-17.765-25.961c-1.539-11.059,2.107-21.93,10.001-29.824
	c7.895-7.896,18.764-11.54,29.827-10.002c11.059,1.539,20.521,8.015,25.96,17.765C216.703,280.024,234.337,297.865,255.719,310.177z
	 M362.505,424.368c0,31.28-25.449,56.729-56.729,56.729H186.173l55.216-61.066h49.588c16.325,0,29.607-13.282,29.607-29.608v-57.979
	l10.742-11.88c10.049,5.271,20.599,8.164,31.178,8.596v95.208H362.505z M254.952,405.031l50.633-55.997v41.39
	c0,8.055-6.553,14.608-14.607,14.608h-36.026V405.031z M456.376,219.425c-7.078,25.538-22.279,51.761-40.663,70.144
	c-26.671,26.673-55.005,31.904-81.935,15.123c-3.079-1.921-7.094-1.357-9.529,1.335L159.414,488.325
	c-4.887,5.405-11.591,8.483-18.876,8.666c-7.268,0.206-14.135-2.554-19.288-7.707c-5.153-5.152-7.891-12.003-7.707-19.288
	c0.183-7.285,3.261-13.989,8.666-18.876l182.299-164.835c2.692-2.436,3.255-6.449,1.335-9.53c-0.469-0.753-0.914-1.506-1.349-2.261
	c-0.179-0.311-0.35-0.623-0.523-0.935c-0.224-0.403-0.443-0.806-0.658-1.209c-0.241-0.456-0.479-0.912-0.708-1.369
	c-0.083-0.164-0.162-0.329-0.243-0.493c-9.437-19.262-7.807-39.513,4.862-58.967c0.033-0.05,0.058-0.103,0.089-0.154
	c3.656-5.567,8.198-11.091,13.652-16.545c18.383-18.384,44.605-33.585,70.144-40.663c9.903-2.744,19.14-4.1,27.409-4.1
	c13.443,0,24.33,3.584,31.352,10.605C461.211,172.004,463.582,193.422,456.376,219.425z M140.268,141.878c4.143,0,7.5-3.357,7.5-7.5
	v-11.729c0-4.143-3.357-7.5-7.5-7.5s-7.5,3.357-7.5,7.5v11.729C132.768,138.52,136.125,141.878,140.268,141.878z M196.212,152.653
	c4.026,0,7.752-1.309,10.774-3.522c3.024,2.214,6.749,3.522,10.775,3.522c10.076,0,18.274-8.198,18.274-18.275
	c0-4.143-3.357-7.5-7.5-7.5s-7.5,3.357-7.5,7.5c0,1.806-1.469,3.275-3.274,3.275s-3.275-1.47-3.275-3.275c0-4.143-3.357-7.5-7.5-7.5
	s-7.5,3.357-7.5,7.5c0,1.806-1.469,3.275-3.274,3.275c-1.806,0-3.274-1.47-3.274-3.275c0-4.143-3.357-7.5-7.5-7.5
	s-7.5,3.357-7.5,7.5C177.938,144.455,186.136,152.653,196.212,152.653z"/>
<g>
</g>
<g>
</g>
<g>
</g>
<g>
</g>
<g>
</g>
<g>
</g>
<g>
</g>
<g>
</g>
<g>
</g>
<g>
</g>
<g>
</g>
<g>
</g>
<g>
</g>
<g>
</g>
<g>
</g>
</svg>
