<?xml version="1.0" encoding="iso-8859-1"?>
<!-- Generator: Adobe Illustrator 19.0.0, SVG Export Plug-In . SVG Version: 6.00 Build 0)  -->
<svg version="1.1" id="Layer_1" xmlns="http://www.w3.org/2000/svg" xmlns:xlink="http://www.w3.org/1999/xlink" x="0px" y="0px"
	 viewBox="0 0 511.999 511.999" style="enable-background:new 0 0 511.999 511.999;" xml:space="preserve">
<g>
	<path style="fill:#7FB335;" d="M272.709,151.12c-71.478,0-134.992-51.343-147.822-124.113c-1.597-9.076,4.465-17.729,13.535-19.325
		C219.915-6.689,298.008,47.939,312.39,129.487c0.761,4.362-0.228,8.848-2.77,12.476c-2.531,3.623-6.409,6.095-10.765,6.86
		C290.078,150.371,281.334,151.12,272.709,151.12z"/>
	<path style="fill:#7FB335;" d="M119.067,253.904c-42.897,0-85.501-18.223-115.168-53.57c-2.835-3.389-4.226-7.772-3.834-12.183
		c0.38-4.405,2.509-8.484,5.899-11.325c30.72-25.783,69.718-38.041,109.617-34.565c39.954,3.498,76.16,22.345,101.947,53.07
		c5.92,7.061,4.997,17.587-2.063,23.507C187.393,242.4,153.133,253.904,119.067,253.904z"/>
</g>
<path style="fill:#A6673A;" d="M461.028,97.919C368.815,143.97,331.217,192.58,331.217,265.55v17.575
	c0,8.343-6.118,15.239-14.127,16.463c-0.78,0.111-1.669,0.222-2.558,0.222c-9.234,0-16.685-7.453-16.685-16.685V265.55
	c0-33.593,7.118-61.847,19.244-85.762c11.568-23.026,27.586-42.158,46.163-58.621c-15.573,5.339-31.035,11.568-46.163,19.021
	c-65.629,32.258-123.916,85.763-149.277,174.195l-1.558,5.451c-2.112,7.342-8.786,12.125-16.017,12.125
	c-1.557,0-3.115-0.223-4.56-0.667c-8.899-2.558-14.016-11.791-11.457-20.69l1.556-5.339
	c26.03-91.213,88.877-160.179,181.315-201.447c39.489-17.686,84.318-30.256,134.151-37.375c8.009-1.224,15.794,3.671,18.241,11.568
	C471.929,85.795,468.369,94.249,461.028,97.919z"/>
<path style="fill:#99522E;" d="M461.028,97.919C368.815,143.97,331.217,192.58,331.217,265.55v17.575
	c0,8.343-6.118,15.239-14.127,16.463V179.788c11.568-23.026,27.586-42.158,46.163-58.621c-15.573,5.339-31.035,11.568-46.163,19.021
	v-36.374c39.489-17.686,84.318-30.256,134.151-37.375c8.009-1.224,15.794,3.671,18.241,11.568
	C471.929,85.795,468.369,94.249,461.028,97.919z"/>
<path style="fill:#88CC2A;" d="M317.09,268.444c-46.83,0-83.427,51.28-83.427,116.797s36.596,116.797,83.427,116.797
	s83.427-51.28,83.427-116.797S363.919,268.444,317.09,268.444z"/>
<path style="fill:#7FB335;" d="M400.517,385.241c0,65.518-36.596,116.797-83.427,116.797V268.444
	C363.919,268.444,400.517,319.722,400.517,385.241z"/>
<path style="fill:#88CC2A;" d="M70.277,506.612c-16.425,0-31.665-4.921-43.951-15.225C-9.511,461.308-4.601,398.45,37.492,348.281
	c19.282-22.975,43.637-39.65,68.577-46.949c27.331-7.984,52.349-4.047,70.402,11.107c18.076,15.154,26.299,39.095,23.17,67.41
	c-2.857,25.827-15.045,52.701-34.326,75.681v0.006C137.648,488.503,101.79,506.612,70.277,506.612z"/>
<path style="fill:#6D992D;" d="M456.218,290.349L456.218,290.349c-4.422,0-8.669-1.76-11.797-4.889
	c-58.54-58.551-58.54-153.823,0-212.368c6.257-6.257,17.337-6.257,23.594,0c28.363,28.357,43.984,66.068,43.984,106.184
	c0,40.111-15.621,77.821-43.984,106.184C464.887,288.59,460.64,290.349,456.218,290.349z"/>
<g>
</g>
<g>
</g>
<g>
</g>
<g>
</g>
<g>
</g>
<g>
</g>
<g>
</g>
<g>
</g>
<g>
</g>
<g>
</g>
<g>
</g>
<g>
</g>
<g>
</g>
<g>
</g>
<g>
</g>
</svg>
